<?xml version="1.0"?><svg width="1082.6781" height="881.28772" xmlns="http://www.w3.org/2000/svg">
 <title>Running Man</title>
 <metadata id="metadata4566">image/svg+xml</metadata>

 <g>
  <title>Layer 1</title>
  <g id="layer1">
   <path d="m636.990112,191.191757c-32.670715,0 -59.148315,28.106186 -59.148315,62.784409c0,18.139221 7.242981,34.480255 18.829895,45.942596l-46.2005,-12.088318l-72.576294,19.440094l-28.656311,62.767792l-6.48468,11.553528l-8.726196,15.305176l26.585266,6.066193l50.843201,-60.344208l19.293396,4.736572l-29.754456,136.062195l0.2229,0.526428l-81.099243,75.654297l-86.069824,-63.191223l-24.389862,11.925598l8.52356,16.307861l80.22464,103.735352l152.492676,-61.816589l78.835938,-20.339783l42.965149,107.431885l24.779053,3.192871l4.729187,-31.473145l-20.045715,-129.151855l-91.236816,-15.755768l38.723267,-101.766571l87.73468,34.414551l70.059998,-92.784973l12.919067,-6.875427l4.613403,-22.758789l-20.101929,-9.253601l-87.436218,70.908325l-54.290466,-35.908661c29.780334,-3.266205 53.008179,-29.988831 53.008179,-62.462402c0,-34.678223 -26.49823,-62.784409 -59.166626,-62.784409l0,0z" id="path4206" fill="#000000"/>
  </g>
 </g>
</svg>